# xmcd
#
# Track frame offsets:
#	150
#	14070
#	29768
#	41918
#	52586
#	77012
#	93090
#	114094
#	148163
#	170687
#
# Disc length: 2545 seconds
#
# Revision: 1
# Processed by: cddbd v1.5PL3 Copyright (c) Steve Scherf et al.
# Submitted via: EasyCDDAExtractor 6.2.0.3
#
DISCID=7e09ef0a
DTITLE=Аркадий Северный - Аркадий Северный и ансамбль Черноморская чайка CD1
DYEAR=1977
DGENRE=Chanson
TTITLE0=Тетя шура
TTITLE1=Чужая милая
TTITLE2=Шелковый белый платок
TTITLE3=Монах
TTITLE4=Друзьям напину
TTITLE5=Скрипач
TTITLE6=Белая акация
TTITLE7=Белые туфельки
TTITLE8=Скворушка
TTITLE9=Вешние воды
EXTD=
EXTT0=
EXTT1=
EXTT2=
EXTT3=
EXTT4=
EXTT5=
EXTT6=
EXTT7=
EXTT8=
EXTT9=
PLAYORDER=
